<?xml version="1.0" encoding="UTF-8"?>
<svg width="100%" height="100%" viewBox="0 0 242 72" xmlns="http://www.w3.org/2000/svg">
    <g transform="translate(1,1)" fill="#99cc99">
        <!-- border -->
        <rect stroke-width="2" x="0" y="0" width="240" height="70" fill-opacity="0" stroke="#99cc99"/>
        <!-- icon -->
        <g mask="url(#mask-icon)">
            <rect x="0" y="0" width="70" height="70" fill-opacity="1"/>
        </g>
        <!-- text -->
        <g transform="translate(70,0)">
            <g transform="translate(5,19)">
                <path d="M22.56-30.24L16.85-6.14L10.71-30.79L2.09-30.60L2.17 1.22L8.39 0.98L7.52-22.96L13.78 0.91L20.16 0.59L25.44-23.63L25.28 1.42L30.99 1.22L30.68-30.60ZM35.56-20.67L35.21 1.54L40.68 1.38L40.32-20.75ZM40.80-29.22L35.05-28.98L35.64-22.53L40.40-22.84ZM56.67-21.15L50.52-18.86L50.48-21.34L45.13-21.23L44.85 1.77L50.76 1.54L50.60-13.70L57.38-15.79L57.49 1.77L63.13 1.54L62.65-20.83ZM67.77-20.67L67.42 1.54L72.89 1.38L72.54-20.75ZM73.01-29.22L67.26-28.98L67.85-22.53L72.62-22.84ZM77.22-30.24L77.03 1.65L82.46 1.22L82.26-10.04L98.37-10.71L98.65-30.64ZM82.15-15.28L81.95-25.48L93.80-25.79L93.25-15.28ZM102.98 1.42L122.71 1.02L123.02-21.11L102.47-20.60ZM107.94-3.43L107.74-15.83L117.71-15.79L117.47-4.06ZM142.87-16.11L143.07-20.67L127.39-20.83L127.20-7.88L138.54-8.11L138.10-2.87L127.00-3.15L126.76 1.38L142.91 1.54L143.07-12.40L131.61-11.93L132.08-16.38ZM154.45-15.99L158.82-16.26L158.62-20.91L154.60-20.79L154.92-28.47L149.13-28.71L149.13-20.63L146.41-20.56L146.53-15.40L149.13-15.59L149.13 1.02L158.15 0.55L157.83-4.73L153.97-4.02Z" transform="translate(-2.0871277381245, 30.794979079498)"/>
            </g>
        </g>
    </g>

    <mask id="mask-icon">
        <g fill="white">
            <rect stroke-width="2" x="0" y="0" width="70" height="70" fill-opacity="1"/>
        </g>
        <g transform="translate(5,5)" fill="black">
            <svg x="0" y="0" width="60" height="60" filter="url(#filter-alpha)">
                <svg xmlns="http://www.w3.org/2000/svg" viewBox="0 0 94.2 94.2">
                    <path d="M56 64.8l26.6-26.6 8.9 8.9-44.4 44.3L2.8 47.1l8.9-8.9 35.4 35.4 8.9-8.8m8.8 8.9L29.4 38.3 56 11.7l-8.9-8.9-35.4 35.5m70.8 0L47.1 2.8m-4.4 48.7" fill="none" stroke="#202121" stroke-width="4" stroke-miterlimit="10"/>
                </svg>
            </svg>
            <defs>
                <filter id="filter-alpha">
                    <feColorMatrix type="matrix" values="0 0 0 0 0  0 0 0 0 0  0 0 0 0 0  0 0 0 1 0"></feColorMatrix>
                </filter>
            </defs>
        </g>
    </mask>
</svg>
